<svg width="1024.000000pt" height="1024.000000pt" viewBox="0 0 1024.000000 1024.000000" xmlns="http://www.w3.org/2000/svg">
  <g transform="translate(-500.000000,1325.000000) scale(0.17500,-0.17500)" fill="#080808" stroke="none">
    <path d="M5000 7414 c-171 -35 -203 -50 -195 -91 53 -266 53 -285 4 -310 -52
-27 -296 -125 -320 -130 -30 -6 -58 25 -148 159 -70 106 -77 107 -199 26 -53
-36 -127 -84 -164 -108 -99 -65 -99 -61 10 -222 92 -136 95 -120 -62 -281
-162 -166 -148 -163 -303 -62 -156 101 -136 108 -278 -105 -126 -189 -126
-181 20 -277 61 -39 116 -77 123 -83 21 -19 13 -55 -36 -167 -27 -59 -58 -132
-68 -162 -30 -86 -41 -89 -196 -57 -192 41 -180 50 -228 -198 -45 -237 -52
-222 135 -257 176 -32 165 -16 165 -247 0 -232 12 -214 -164 -252 -193 -41
-180 -15 -131 -266 47 -237 33 -225 215 -189 169 33 180 31 205 -47 10 -29 42
-107 72 -173 66 -147 66 -148 -55 -225 -183 -116 -181 -103 -51 -295 150 -223
123 -213 283 -105 150 101 131 105 296 -61 165 -166 160 -144 60 -294 -103
-152 -106 -139 70 -258 232 -156 211 -156 316 4 95 144 90 142 226 84 61 -26
137 -56 170 -67 96 -33 104 -92 42 -324 -13 -47 20 -64 201 -100 256 -52 239
-59 275 121 36 180 18 168 250 170 235 1 220 11 250 -157 35 -192 19 -184 266
-134 243 49 228 32 189 226 -29 147 -26 166 32 188 173 66 293 118 293 126 0
3 -74 81 -164 173 -91 92 -164 168 -163 169 1 0 38 20 82 44 44 24 94 53 110
64 38 27 66 44 83 52 8 4 91 -72 218 -200 206 -207 206 -207 191 -269 -110
-443 174 -915 617 -1027 124 -31 436 -23 471 12 3 3 -94 103 -216 224 -349
346 -352 370 -84 640 265 268 288 266 620 -66 126 -127 235 -230 241 -230 41
0 52 340 15 474 -119 443 -580 718 -1026 611 -60 -14 -60 -14 -250 173 -258
254 -290 289 -278 304 5 7 17 36 27 63 10 28 22 59 27 70 33 74 67 227 89 395
19 159 14 214 -19 191 -28 -20 -29 -24 -35 -128 -4 -60 -11 -121 -15 -138 -5
-16 -14 -57 -21 -90 -19 -93 -83 -283 -122 -359 -11 -22 -31 -62 -43 -87 -13
-25 -35 -59 -49 -76 -14 -17 -26 -34 -26 -38 0 -19 -156 -206 -209 -250 -20
-17 -61 -49 -91 -70 -30 -22 -77 -61 -104 -87 -27 -27 -52 -48 -56 -48 -5 0
-39 -18 -78 -40 -99 -57 -128 -66 -151 -46 -17 16 -24 15 -95 -8 -325 -106
-724 -105 -1056 4 -470 154 -893 721 -945 1268 -6 61 -11 75 -31 88 -46 31
-48 17 -23 -161 5 -38 14 -86 19 -105 5 -19 16 -66 26 -105 9 -38 25 -88 34
-110 10 -22 28 -67 41 -100 13 -33 34 -77 46 -97 13 -21 23 -41 23 -46 0 -9
69 -115 111 -172 81 -108 5 -41 -97 87 -214 267 -336 560 -374 898 -17 155
-19 152 44 86 128 -133 573 -292 681 -243 45 21 27 27 -66 24 -118 -4 -128 7
-43 47 98 47 224 151 264 219 22 37 21 37 -40 16 -51 -18 -125 -14 -184 11
-45 19 -40 31 17 40 49 8 127 42 127 55 0 5 9 11 20 15 26 8 91 106 93 142 4
61 -398 65 -576 5 -73 -24 -73 -15 1 21 31 16 66 34 77 40 51 27 480 19 630
-13 77 -17 208 -39 340 -58 282 -40 769 -13 1000 57 61 19 217 57 355 87 98
21 378 24 435 5 43 -15 108 -59 70 -47 -121 36 -300 33 -531 -9 -124 -23 -123
-22 -84 -89 62 -109 145 -162 280 -179 34 -4 -80 -64 -140 -73 -41 -7 -41 -7
-17 -33 43 -46 115 -158 122 -191 6 -28 10 -31 34 -27 71 14 122 30 181 56 36
16 81 36 100 45 19 8 53 27 75 41 22 13 50 29 62 34 11 5 24 14 28 20 3 6 26
25 51 42 45 30 45 30 39 -38 -16 -202 -38 -320 -87 -466 -29 -89 -29 -89 169
-288 109 -109 201 -199 204 -199 9 0 72 142 105 239 42 120 42 120 214 87 116
-22 143 -24 160 -14 24 15 20 1 65 228 43 215 52 200 -135 240 -174 37 -163
19 -165 250 -2 231 -11 217 162 250 188 36 182 25 137 240 -56 269 -38 253
-234 214 -168 -34 -161 -38 -215 109 -21 56 -51 128 -67 160 -46 92 -42 99 97
193 96 64 121 85 123 106 4 33 -190 330 -226 347 -28 13 -30 12 -171 -81 -131
-86 -111 -91 -273 69 -166 165 -163 151 -63 300 104 156 110 137 -90 270 -213
141 -192 142 -296 -18 -94 -144 -88 -142 -247 -75 -70 29 -148 61 -175 70 -70
26 -72 36 -43 183 41 200 54 183 -176 229 -259 51 -239 60 -278 -132 -35 -173
-17 -161 -251 -160 -228 1 -213 -9 -246 158 -39 192 -23 185 -283 132z m800
-879 c467 -76 887 -317 1130 -649 24 -33 50 -68 59 -78 17 -20 66 -102 81
-137 6 -13 20 -37 31 -52 11 -16 17 -29 14 -29 -4 0 5 -20 19 -45 15 -25 24
-45 21 -45 -3 0 2 -11 11 -25 9 -14 13 -25 10 -25 -4 0 -2 -10 5 -21 10 -20 9
-21 -12 -14 -53 17 -331 17 -424 1 -49 -9 -127 -23 -172 -31 -46 -8 -115 -26
-155 -39 -40 -13 -109 -34 -153 -46 -44 -12 -99 -28 -122 -36 -79 -26 -318
-74 -423 -85 -196 -20 -395 2 -695 78 -159 40 -231 53 -365 64 -316 25 -584
-29 -745 -150 -30 -23 -56 -41 -58 -41 -3 0 4 39 14 88 81 388 324 759 667
1014 76 56 76 56 105 36 70 -50 199 -18 294 71 123 117 226 115 281 -7 45 -99
19 -283 -52 -376 -14 -19 -26 -37 -26 -40 0 -3 -15 -27 -34 -53 -69 -97 -112
-203 -122 -299 -6 -60 -6 -60 517 -60 520 1 553 -1 543 -29 -5 -13 -85 -15
-556 -17 -597 -3 -577 1 -578 -110 0 -20 32 -30 335 -98 179 -40 504 -36 700
9 140 32 308 83 327 100 8 7 -5 57 -23 93 -13 25 -14 24 44 57 97 57 157 153
157 253 0 20 5 40 11 44 20 12 59 114 59 155 0 234 -291 329 -409 134 -37 -62
-41 -107 -29 -365 11 -219 -2 -189 -83 198 -11 51 -24 101 -28 110 -14 27 -29
63 -51 122 -12 30 -29 64 -39 75 -10 11 -21 27 -25 35 -24 53 -58 92 -178 208
-87 83 -74 88 122 57z m-359 -210 c16 -33 29 -72 29 -87 0 -48 -56 -244 -72
-254 -8 -5 -9 1 -4 17 52 162 42 343 -20 384 -35 23 -29 39 7 18 21 -12 41
-38 60 -78z m934 -321 c14 -10 20 -26 20 -54 0 -91 -123 -101 -141 -12 -14 68
63 110 121 66z m-500 -219 c4 -16 10 -39 15 -50 13 -34 32 -126 27 -131 -3 -3
-8 5 -12 18 -4 13 -16 43 -27 67 -14 32 -21 72 -23 140 -3 81 -2 87 5 41 4
-30 11 -68 15 -85z m455 -14 c26 -50 1 -133 -63 -206 -45 -52 -53 -42 -28 36
12 34 21 77 21 94 0 77 43 125 70 76z" />
    <path d="M5070 6317 c-104 -33 -256 -112 -390 -204 -166 -114 -490 -483 -490
-559 0 -3 -8 -18 -18 -32 -10 -15 -29 -54 -42 -87 -13 -33 -27 -64 -32 -69
-23 -26 -9 -46 23 -33 25 10 42 34 93 132 97 185 152 261 301 410 109 111 223
205 279 232 20 9 36 19 36 23 0 11 189 102 290 140 94 35 48 79 -50 47z" />
    <path d="M5900 6321 c0 -23 48 -60 90 -70 25 -5 63 -15 85 -22 44 -13 119 -5
113 13 -11 31 -288 107 -288 79z" />
    <path d="M5079 6096 c-41 -17 -87 -39 -102 -48 -14 -10 -29 -18 -33 -18 -31 0
-202 -132 -318 -245 -134 -130 -307 -377 -283 -402 11 -10 31 14 69 82 128
227 351 439 598 568 41 21 97 47 125 57 50 18 72 41 38 39 -10 -1 -52 -15 -94
-33z" />
    <path d="M6570 6008 c0 -25 13 -45 70 -102 104 -106 165 -181 231 -281 89
-137 89 -136 112 -133 76 11 -145 334 -342 502 -65 55 -71 56 -71 14z" />
    <path d="M6520 5788 c0 -7 29 -43 63 -81 61 -66 89 -101 149 -184 28 -41 48
-54 48 -34 0 18 -102 157 -171 234 -68 75 -89 90 -89 65z" />
    <path d="M6368 5124 c-7 -6 -47 -17 -148 -38 -36 -8 -90 -21 -120 -29 -272
-75 -746 -71 -1100 9 -131 29 -202 24 -212 -15 -18 -65 -79 -140 -140 -172
-55 -28 -60 -43 -11 -36 57 10 120 45 159 91 33 38 34 39 34 14 0 -83 -148
-281 -259 -346 -24 -14 -39 -28 -33 -30 19 -6 115 29 138 50 34 30 38 4 6 -34
-157 -183 -207 -356 -153 -531 12 -38 31 -42 31 -7 0 10 5 22 10 25 6 4 10
-30 10 -95 0 -110 51 -314 58 -230 6 86 14 87 32 5 35 -154 88 -232 254 -373
115 -97 130 -99 53 -7 -92 112 -119 253 -75 395 14 45 14 45 10 -38 -15 -268
140 -430 451 -475 45 -6 87 -17 92 -25 24 -31 137 60 165 132 5 15 10 75 11
134 0 112 8 114 28 6 19 -106 -3 -202 -56 -244 -34 -27 -25 -34 36 -25 115 16
241 160 241 277 0 12 4 16 11 12 33 -20 -17 -196 -71 -252 -35 -37 -18 -35 37
4 119 83 168 239 129 407 -20 85 2 54 36 -50 47 -146 20 -294 -62 -341 -39
-22 -38 -33 3 -20 17 5 42 12 54 15 71 16 146 130 160 239 8 69 20 45 22 -43
1 -58 -9 -87 -53 -153 -30 -45 -30 -45 -1 -26 39 25 63 55 71 86 4 14 11 30
16 37 5 7 7 51 4 100 -14 221 -15 316 -3 221 7 -48 15 -90 20 -94 4 -4 7 -14
7 -21 0 -8 16 -40 36 -71 22 -34 39 -74 42 -99 5 -50 9 -52 39 -17 44 52 68
131 68 231 0 50 3 89 6 87 8 -5 25 -50 34 -89 7 -30 7 -30 21 5 38 89 13 253
-54 359 -50 78 -15 57 39 -23 57 -85 78 -143 86 -234 10 -122 43 -57 43 85 0
203 -124 379 -298 425 -186 49 -292 60 -292 29 0 -15 11 -19 68 -25 136 -14
372 -91 372 -122 0 -3 -3 -3 -7 -1 -131 77 -446 134 -455 83 -5 -23 -1 -29 21
-37 93 -35 214 -109 269 -166 34 -36 26 -41 -10 -7 -18 17 -46 39 -62 50 -16
10 -41 27 -55 36 -27 18 -29 19 -126 62 -48 22 -62 24 -70 14 -154 -196 -567
-205 -701 -14 -9 14 -17 16 -26 9 -7 -5 -37 -20 -66 -32 -88 -37 -182 -100
-271 -184 -34 -32 -34 -32 -8 3 56 76 275 220 334 220 18 0 16 25 -3 40 -44
37 -469 -106 -534 -179 -10 -11 -80 -62 -80 -58 0 16 183 147 205 147 2 0 28
11 57 24 83 37 125 51 236 77 82 19 102 27 102 41 0 22 2 22 -117 -1 -128 -25
-347 -120 -393 -170 -8 -9 -26 -25 -40 -36 -21 -16 -20 -14 5 14 40 44 143
111 232 150 69 30 123 46 249 72 75 15 108 62 52 73 -100 20 -347 -19 -451
-71 -27 -13 -51 -23 -53 -20 -6 6 73 44 126 61 121 39 178 49 295 49 115 0
121 1 148 25 37 35 36 36 -30 55 -116 33 -181 41 -333 40 -149 0 -153 0 -100
13 112 27 269 14 445 -37 73 -22 73 -22 132 11 161 90 160 90 238 90 41 0 76
-4 80 -9 3 -5 18 -12 33 -16 15 -3 63 -27 106 -53 80 -47 80 -47 165 -19 120
38 220 57 293 55 35 0 47 -3 28 -4 -104 -10 -198 -30 -327 -71 -61 -19 -62
-21 -25 -56 26 -25 30 -26 92 -17 101 15 188 11 280 -11 47 -12 102 -23 122
-26 57 -8 70 -32 16 -27 -24 2 -83 7 -133 11 -66 5 -81 8 -55 12 71 12 -12 31
-128 30 -120 -1 -157 -8 -157 -29 0 -12 19 -15 105 -14 58 1 88 0 67 -3 -49
-6 -44 -26 9 -35 189 -31 343 -120 412 -237 57 -96 39 144 -22 308 -21 54 -17
89 4 50 65 -113 89 -125 102 -49 20 112 -26 221 -164 387 -64 78 -88 110 -88
119 0 4 10 -2 23 -13 35 -32 62 -43 111 -43 79 0 83 10 16 42 -75 36 -144 107
-169 173 -17 46 -38 65 -53 49z m-1088 -230 c72 -33 116 -77 146 -143 25 -56
34 -105 12 -66 -6 11 -12 21 -13 23 -1 1 -24 -9 -50 -23 -130 -69 -301 20
-333 172 -5 26 -14 39 -27 41 -65 12 -25 22 86 22 112 0 129 -3 179 -26z m975
16 c-3 -5 -14 -10 -25 -10 -19 0 -30 -19 -30 -53 0 -133 -269 -242 -357 -145
-16 18 -17 18 -35 -14 -31 -58 -20 -3 13 67 59 122 138 163 317 164 80 1 121
-3 117 -9z m-1139 -1327 c1 -43 8 -103 17 -133 18 -66 14 -77 -9 -24 -9 22
-20 47 -25 56 -18 36 -5 178 16 178 0 0 1 -35 1 -77z" />
    <path d="M5098 4893 c-68 -11 0 -144 90 -179 74 -28 189 -10 216 35 17 27
-117 125 -184 135 -80 12 -94 13 -122 9z m82 -42 c5 -11 10 -28 10 -38 0 -10
7 -31 15 -47 19 -36 14 -42 -23 -27 -45 19 -96 104 -75 125 14 14 63 5 73 -13z
m166 -82 c18 -20 18 -21 -1 -35 -29 -21 -79 -19 -70 4 4 9 10 25 12 35 7 23
36 22 59 -4z" />
    <path d="M6012 4884 c-125 -33 -198 -137 -119 -168 120 -45 229 2 268 116 24
72 -19 87 -149 52z m128 -34 c0 -34 -29 -80 -63 -100 -48 -30 -58 -25 -36 17
10 21 19 49 19 63 0 35 6 40 47 40 27 0 33 -4 33 -20z m-174 -93 c15 -42 -3
-49 -62 -27 -27 11 -27 11 1 40 35 37 45 35 61 -13z" />
    <path d="M6956 4578 c-9 -31 -26 -128 -31 -183 -12 -122 -106 -357 -205 -514
-54 -86 -69 -140 -25 -86 14 17 25 34 25 38 0 5 11 23 24 40 102 137 202 421
230 654 6 47 -8 86 -18 51z" />
    <path d="M4216 4453 c6 -55 6 -53 34 -158 38 -144 84 -253 162 -384 65 -109
148 -211 148 -183 0 11 -10 33 -23 49 -34 43 -91 132 -127 198 -17 33 -35 65
-40 70 -4 6 -20 44 -34 85 -15 41 -33 88 -41 105 -14 30 -28 92 -45 192 -14
85 -44 108 -34 26z" />
    <path d="M5511 4487 c-20 -20 -12 -47 17 -58 148 -56 57 -209 -126 -209 -47 0
-53 -2 -42 -15 18 -21 92 -19 164 5 75 25 127 25 194 0 60 -23 139 -26 165 -6
26 20 23 21 -55 21 -173 0 -251 120 -127 196 50 31 59 48 37 67 -18 14 -212
14 -227 -1z" />
  </g>
</svg>