<!DOCTYPE svg PUBLIC "-//W3C//DTD SVG 1.1//EN" "http://www.w3.org/Graphics/SVG/1.1/DTD/svg11.dtd">
<!-- Uploaded to: SVG Repo, www.svgrepo.com, Transformed by: SVG Repo Mixer Tools -->
<svg fill="#ebeaea" height="800px" width="800px" version="1.1" id="Capa_1" xmlns="http://www.w3.org/2000/svg" xmlns:xlink="http://www.w3.org/1999/xlink" viewBox="0 0 244.708 244.708" xml:space="preserve">
<g id="SVGRepo_bgCarrier" stroke-width="0"/>
<g id="SVGRepo_tracerCarrier" stroke-linecap="round" stroke-linejoin="round"/>
<g id="SVGRepo_iconCarrier"> <g> <path d="M231.872,63.476h-42.756c-6.619,0-14.616,4.357-18.207,9.919l-31.395,48.654c-0.26,0.402-0.563,0.805-0.883,1.206 L94.457,96.88c-4.149-2.477-9.521-1.124-12,3.027c-2.478,4.149-1.122,9.522,3.027,12l34.896,20.836l-33.786,6.379 c-6.745,1.273-12.232,7.894-12.232,14.758v47.962c0,7.078,5.758,12.836,12.836,12.836h31.449 c4.349,14.93,18.146,25.874,34.46,25.874c16.314,0,30.112-10.944,34.462-25.874h44.303c7.078,0,12.836-5.758,12.836-12.836V76.312 C244.708,69.235,238.95,63.476,231.872,63.476z M153.107,222.487c-9.846,0-17.83-7.984-17.83-17.831 c0-9.848,7.984-17.829,17.83-17.829c9.848,0,17.83,7.982,17.83,17.829C170.938,214.503,162.955,222.487,153.107,222.487z M231.498,123.827c0,4.69-3.837,8.527-8.527,8.527h-58.074c-4.691,0-6.527-3.275-4.084-7.278l22.748-37.257 c2.443-4.003,8.28-7.278,12.971-7.278h26.439c4.69,0,8.527,3.837,8.527,8.527V123.827z"/> <path d="M59.774,48.051c0.959,0,1.931-0.064,2.888-0.19c11.995-1.578,20.47-12.622,18.893-24.619 C80.124,12.362,70.782,4.156,59.826,4.156c-0.959,0-1.93,0.064-2.887,0.19C51.127,5.11,45.96,8.093,42.391,12.743 c-3.568,4.65-5.112,10.411-4.348,16.222C39.474,39.846,48.816,48.051,59.774,48.051z"/> <path d="M81.37,136.621c1.656-2.411,2.275-5.322,1.741-8.198c-0.533-2.876-2.155-5.372-4.565-7.029L58.87,107.878l-5.709-44.467 c-0.098-0.727-1.365-7.528-8.296-10.972c-1.692-0.841-3.566-1.129-5.442-1.129c-5.496,0-10.454,3.26-12.631,8.304L2.739,115.341 C1.126,119.076,0,124.524,0,128.591v92.772c0,7.582,6.169,13.75,13.752,13.75c7.581,0,13.748-6.168,13.748-13.75v-92.7 c0.017-0.53,0.312-1.977,0.487-2.425l8.581-19.88l0.698,5.214c0.708,5.293,4.143,10.881,8.545,13.908l20.332,13.966 c1.834,1.26,3.975,1.926,6.192,1.926C75.951,141.372,79.328,139.596,81.37,136.621z"/> </g> </g>
</svg>